<svg height='300px' width='300px'  fill="#1A1A1A" xmlns="http://www.w3.org/2000/svg" xmlns:xlink="http://www.w3.org/1999/xlink" version="1.1" x="0px" y="0px" viewBox="0 0 100 100" enable-background="new 0 0 100 100" xml:space="preserve"><path d="M88.091,29.408c-0.786-1.848-2.427-3.167-4.281-3.443c-1.453-0.214-3.659,0.098-5.944,2.821  c-2.938,3.506-8.232,7.484-11.858,9.051c-0.627-2.235-2.332-4.082-5.758-5.507c-0.585-2.656-2.071-4.143-3.286-4.929  c-1.402-0.908-2.976-1.252-4.316-1.241c-0.425-1.624-1.289-3.04-2.605-4.195c-2.349-2.062-5.001-2.876-7.881-2.425  c-6.398,1.005-12.218,8.227-14.867,12.008c-0.215-0.642-0.37-1.296-0.446-1.963c-1.366-11.922-6.328-14.442-10.277-14.442h-0.063  c-1.455,0.01-2.627,0.514-3.483,1.498c-1.43,1.643-1.829,4.429-1.255,8.769c0.411,3.099,0.898,8.961,0.56,12.413  c-0.36,3.665-0.446,9.127-0.19,12.178l0.048,0.624c0.198,2.618,0.584,7.598,3.07,12.242c0.086,2.817-1.948,7.415-2.769,9  c-0.381,0.735-0.094,1.641,0.641,2.021c0.221,0.115,0.457,0.169,0.689,0.169c0.542,0,1.065-0.295,1.333-0.809  c0.245-0.472,1.8-3.539,2.616-6.759c0.817,0.927,1.742,1.81,2.827,2.608c2.652,1.953,5.416,2.924,8.143,2.924  c0.84,0,1.677-0.095,2.506-0.278c0.056,0.095,0.095,0.196,0.174,0.279c2.254,2.385,4.646,3.934,7.158,4.685  c-3.554,3.074-5.456,5.632-5.552,5.763c-0.492,0.667-0.349,1.605,0.318,2.098c0.268,0.197,0.58,0.292,0.889,0.292  c0.46,0,0.915-0.211,1.208-0.61c0.026-0.035,2.578-3.457,7.287-7.046c2.034-0.1,4.134-0.66,6.299-1.733  c5.346-2.651,8.984-7.748,12.835-13.143c2.032-2.849,4.134-5.791,6.559-8.461C87.325,42.393,89.561,32.855,88.091,29.408z   M60.375,35.682c2.906,1.544,3.456,3.563,2.484,7.702c-1.207,5.135-8.745,14.227-11.861,14.306  c-0.704,0.028-2.535,0.058-3.399-3.879c0.396-0.248,0.797-0.514,1.207-0.817C53.539,49.493,59.523,41.792,60.375,35.682z   M50.68,36.558c1.401-2.682,2.151-5.172,2.26-7.396c0.714,0.037,1.591,0.239,2.393,0.758c1.183,0.765,1.892,2.005,2.108,3.684  c0.586,4.56-5.239,13.147-10.418,16.979c-2.38,1.762-3.973,2.046-4.672,1.734c-1.623-0.734-1.61-3.357-1.535-4.418  C44.546,45.317,48.441,40.841,50.68,36.558z M66.68,51.41c-0.122,0.074-0.233,0.165-0.33,0.271c-2.61,2.847-4.808,5.925-6.934,8.902  c-3.627,5.081-7.053,9.88-11.726,12.198c-4.962,2.463-9.361,1.755-13.424-2.151c1.474-0.75,2.907-1.79,4.268-3.151  c0.585-0.586,0.585-1.536,0-2.121c-0.586-0.586-1.536-0.586-2.122,0c-3.062,3.065-7.983,5.785-14.039,1.323  c-6.315-4.652-6.932-12.804-7.195-16.284l-0.051-0.647c-0.242-2.9-0.159-8.12,0.187-11.635c0.393-3.993-0.202-10.315-0.571-13.1  c-0.577-4.366,0.093-5.887,0.544-6.405c0.187-0.215,0.497-0.462,1.241-0.467h0.039c4.917,0,6.685,6.404,7.301,11.784  c0.22,1.921,0.88,3.746,1.949,5.459c0.024,0.038,0.045,0.078,0.073,0.114c0.509,0.8,1.1,1.577,1.792,2.324  c0.563,0.607,1.513,0.644,2.12,0.081c0.607-0.563,0.644-1.512,0.081-2.12c-0.371-0.4-0.701-0.81-1.005-1.226  c2.381-3.69,8.24-11.189,13.75-12.055c1.985-0.311,3.765,0.25,5.436,1.716c3.388,2.975,1.428,8.137-0.041,10.95  c-3.72,7.119-10.679,12.457-12.922,11.899c-0.559-0.138-1.071-0.682-1.369-1.456c-0.325-0.845-0.421-2.12,0.285-3.164  c0.902-1.335,2.048-2.897,3.157-4.407c1.823-2.485,3.397-4.63,3.97-5.838c0.355-0.749,0.036-1.643-0.713-1.998  c-0.748-0.353-1.643-0.036-1.998,0.713c-0.45,0.949-2.091,3.186-3.678,5.349c-1.125,1.533-2.289,3.119-3.223,4.502  c-1.148,1.699-1.373,3.913-0.599,5.922c0.659,1.714,1.917,2.913,3.45,3.291c0.307,0.076,0.629,0.112,0.965,0.112  c0.762,0,1.597-0.204,2.47-0.545c0.188,2.25,1.106,4.51,3.298,5.501c0.562,0.255,1.176,0.381,1.837,0.381  c0.591,0,1.222-0.107,1.882-0.308c1.216,4.528,3.884,5.57,6.065,5.57c0.059,0,0.117-0.001,0.175-0.003  c5.11-0.131,13.371-10.938,14.706-16.619c0.257-1.093,0.43-2.13,0.495-3.116c4.518-1.617,10.734-6.476,13.89-10.241  c0.768-0.916,1.962-1.964,3.203-1.781c0.93,0.138,1.656,0.929,1.964,1.651C86.016,32.19,84.856,40.433,66.68,51.41z"></path></svg>