<?xml version="1.0" encoding="UTF-8"?>
<svg width="423px" height="383px" viewBox="0 0 423 383" version="1.1" xmlns="http://www.w3.org/2000/svg" xmlns:xlink="http://www.w3.org/1999/xlink">
    <!-- Generator: Sketch 51.3 (57544) - http://www.bohemiancoding.com/sketch -->
    <title>Shape</title>
    <desc>Created with Sketch.</desc>
    <defs></defs>
    <g id="Page-1" stroke="none" stroke-width="1" fill="none" fill-rule="evenodd">
        <g id="big-icon" transform="translate(-45.000000, -65.000000)" fill="#FFFFFF" fill-rule="nonzero">
            <g id="shaka" transform="translate(45.000000, 65.000000)">
                <path d="M420.975842,78.3667542 C416.654617,68.2145101 407.632822,60.9684008 397.440008,59.4521566 C389.451788,58.2765179 377.323769,59.9905332 364.761428,74.949711 C348.609061,94.2104078 319.504013,116.064102 299.5692,124.672634 C296.122115,112.394351 286.748465,102.247601 267.9132,94.4191661 C264.69702,79.828062 256.527375,71.6590215 249.847618,67.3410216 C242.139784,62.3527977 233.486337,60.4629861 226.119363,60.5234161 C223.782822,51.6017471 219.032773,43.8227549 211.797744,37.4776023 C198.883548,26.1497196 184.303535,21.6778978 168.470037,24.1555288 C133.295482,29.6766355 101.298622,69.3516933 86.7351028,90.1231407 C85.5530882,86.5962247 84.7009382,83.0033851 84.2831098,79.3391282 C76.7731938,13.8439692 49.4933966,0 27.7828124,0 L27.4364546,0 C19.4372396,0.0549363857 12.9938856,2.82373022 8.28781826,8.22947057 C0.426046799,17.2555187 -1.76755237,32.5607958 1.3881517,56.4031872 C3.64772377,73.4279731 6.32512426,105.631682 4.46688737,124.595723 C2.48770015,144.729908 2.01489432,174.736162 3.42231634,191.497253 L3.68620797,194.925284 C4.77476094,209.307629 6.89688946,236.665949 20.5642768,262.178407 C21.0370826,277.653987 9.8546748,302.913737 5.3410284,311.621154 C3.24638859,315.658978 4.82424062,320.636215 8.86508119,322.723798 C10.0800822,323.355566 11.3775494,323.652223 12.6530256,323.652223 C15.6328019,323.652223 18.5081211,322.031599 19.9815161,319.207869 C21.3284629,316.614872 29.8774522,299.765882 34.3636099,282.076366 C38.8552653,287.168969 43.9406769,292.019852 49.9057273,296.403775 C64.4857398,307.132851 79.6814995,312.467174 94.6738427,312.467174 C99.2919462,312.467174 103.893556,311.945279 108.451185,310.939943 C108.759058,311.461839 108.97347,312.016696 109.407792,312.472668 C121.799703,325.574996 134.950303,334.084642 148.760631,338.210365 C129.221655,355.09781 118.764949,369.150537 118.237166,369.870204 C115.532277,373.534461 116.318454,378.687494 119.985448,381.395858 C121.458843,382.478104 123.174139,383 124.872941,383 C127.401902,383 129.903375,381.840842 131.514214,379.64888 C131.657155,379.456603 145.687393,360.657372 171.576262,340.940703 C182.758669,340.391339 194.303928,337.314902 206.20654,331.420227 C235.59747,316.856592 255.598257,288.855516 276.770062,259.217336 C287.941475,243.56596 299.497729,227.403675 312.829754,212.73566 C416.764572,149.701651 429.057523,97.3033263 420.975842,78.3667542 Z M268.600417,112.833843 C284.576856,121.31602 287.600615,132.407677 282.256809,155.145847 C275.621034,183.355681 234.179053,233.303843 217.048088,233.73784 C213.177677,233.891662 203.111311,234.056471 198.361262,212.428016 C200.538368,211.065594 202.742963,209.604286 204.997037,207.939713 C231.017851,188.706485 263.916341,146.399974 268.600417,112.833843 Z M215.299806,117.64627 C223.002143,102.912331 227.12545,89.2331712 227.724704,77.0153191 C231.650092,77.2185837 236.471611,78.3282987 240.880801,81.1794971 C247.38463,85.3821306 251.282529,92.1942424 252.470042,101.418062 C255.691718,126.469053 223.66737,173.642928 195.194562,194.694551 C182.109936,204.374342 173.352032,205.934535 169.509111,204.22052 C160.586275,200.188189 160.657745,185.778375 161.070076,179.949625 C181.576655,165.76505 202.990361,141.175524 215.299806,117.64627 Z M303.263682,199.23779 C302.592958,199.644319 301.982708,200.14424 301.449427,200.726566 C287.10032,216.366955 275.016283,233.276374 263.328083,249.630937 C243.387771,277.544114 224.552506,303.908086 198.861557,316.64234 C171.581759,330.173172 147.397191,326.283675 125.059864,304.825523 C133.163536,300.705294 141.041801,294.99191 148.524228,287.515068 C151.740407,284.295796 151.740407,279.076839 148.524228,275.863061 C145.302551,272.643788 140.079696,272.643788 136.858019,275.863061 C120.023932,292.701063 92.9695426,307.64376 59.6752153,283.131144 C24.9569728,257.574738 21.5648659,212.790596 20.1189596,193.672734 L19.8385748,190.11835 C18.5081211,174.186798 18.9644338,145.510005 20.8666526,126.199865 C23.0272653,104.263766 19.7561086,69.5329833 17.7274417,54.2331999 C14.5552445,30.247974 18.2387318,21.8921497 20.7182135,19.0464449 C21.7462914,17.8653126 23.4505915,16.5083839 27.5409117,16.4809157 L27.7553237,16.4809157 C54.7877224,16.4809157 64.5077308,51.6621771 67.89434,81.2179526 C69.1038433,91.7712323 72.7323532,101.797123 78.6094397,111.207726 C78.7413855,111.416484 78.8568381,111.636229 79.0107749,111.834 C81.8091257,116.228911 85.0582914,120.497468 88.8627291,124.601216 C91.957958,127.935855 97.1808131,128.13912 100.517943,125.046201 C103.855072,121.953283 104.058489,116.73982 100.96326,113.399687 C98.9235974,111.202232 97.1093425,108.94984 95.4380288,106.664486 C108.528153,86.3929601 140.739425,45.1961645 171.031985,40.4386735 C181.945004,38.7301519 191.730985,41.8120831 200.917712,49.8657573 C219.544063,66.209332 208.768488,94.5674943 200.692305,110.0211 C180.240703,149.130313 141.981915,178.455355 129.650479,175.389905 C126.577241,174.631783 123.762397,171.643243 122.12407,167.391167 C120.337304,162.749043 119.80952,155.744653 123.690926,150.009295 C128.64989,142.675287 134.950303,134.094224 141.047299,125.79883 C151.069683,112.147138 159.723129,100.363283 162.873336,93.7269676 C164.825034,89.6122323 163.071254,84.7009194 158.953445,82.7506777 C154.841134,80.8114233 149.920655,82.5529068 147.968956,86.667642 C145.494972,91.881105 136.473177,104.170375 127.74826,116.053115 C121.5633,124.474863 115.163928,133.187773 110.029037,140.785476 C103.717629,150.119167 102.480637,162.282083 106.735889,173.318803 C110.358901,182.7349 117.275061,189.321772 125.7031,191.398368 C127.390907,191.815884 129.16118,192.013655 131.008421,192.013655 C135.197701,192.013655 139.788316,190.892953 144.587845,189.019622 C145.62142,201.380309 150.668348,213.795932 162.719399,219.240128 C165.80913,220.641006 169.184744,221.333204 172.818751,221.333204 C176.067917,221.333204 179.536992,220.745385 183.165502,219.641164 C189.850757,244.516359 204.518733,250.24073 216.509309,250.24073 C216.833676,250.24073 217.152545,250.235237 217.471414,250.224249 C245.564877,249.504583 290.981726,190.134831 298.321212,158.92547 C299.734132,152.920923 300.685241,147.22402 301.042595,141.807292 C325.881394,132.924079 360.05536,106.230489 377.406235,85.5469398 C381.628501,80.5147668 388.192805,74.7574336 395.015503,75.7627695 C400.128404,76.5208916 404.119764,80.8663597 405.813069,84.8327668 C409.568027,93.6500567 403.190646,138.934119 303.263682,199.23779 Z" id="Shape"></path>
            </g>
        </g>
    </g>
</svg>